<svg width="1280" height="720" xmlns="http://www.w3.org/2000/svg" xmlns:xlink="http://www.w3.org/1999/xlink" overflow="hidden"><defs><clipPath id="clip0"><rect x="0" y="0" width="1280" height="720"/></clipPath></defs><g clip-path="url(#clip0)"><rect x="0" y="0" width="1280" height="720" fill="#FFFFFF"/><text font-family="Calibri,Calibri_MSFontService,sans-serif" font-weight="400" font-size="24" transform="translate(1010.77 137)">Cluster B</text><path d="M504.5 134.668C504.5 110.275 524.275 90.5001 548.668 90.5001L725.332 90.5001C749.726 90.5001 769.5 110.275 769.5 134.668L769.5 652.332C769.5 676.725 749.726 696.5 725.332 696.5L548.668 696.5C524.275 696.5 504.5 676.725 504.5 652.332Z" stroke="#2F528F" stroke-width="1.33333" stroke-miterlimit="8" fill="none" fill-rule="evenodd"/><rect x="544.5" y="163.5" width="186" height="55" stroke="#41719C" stroke-width="1.33333" stroke-miterlimit="8" fill="#5B9BD5"/><text fill="#FFFFFF" font-family="Calibri,Calibri_MSFontService,sans-serif" font-weight="400" font-size="24" transform="translate(571.183 198)">PdpSubgroup</text><rect x="544.5" y="322.5" width="186" height="54" stroke="#41719C" stroke-width="1.33333" stroke-miterlimit="8" fill="#5B9BD5"/><text fill="#FFFFFF" font-family="Calibri,Calibri_MSFontService,sans-serif" font-weight="400" font-size="24" transform="translate(601.124 356)">PDP A1</text><rect x="544.5" y="390.5" width="186" height="54" stroke="#41719C" stroke-width="1.33333" stroke-miterlimit="8" fill="#5B9BD5"/><text fill="#FFFFFF" font-family="Calibri,Calibri_MSFontService,sans-serif" font-weight="400" font-size="24" transform="translate(601.124 424)">PDP A2</text><rect x="544.5" y="458.5" width="186" height="54" stroke="#41719C" stroke-width="1.33333" stroke-miterlimit="8" fill="#5B9BD5"/><text fill="#FFFFFF" font-family="Calibri,Calibri_MSFontService,sans-serif" font-weight="400" font-size="24" transform="translate(601.54 493)">PDP B1<tspan fill="#000000" font-size="24" x="-15.5099" y="-356">Shared DB</tspan></text><rect x="544.5" y="530.5" width="186" height="78" stroke="#41719C" stroke-width="1.33333" stroke-miterlimit="8" fill="#5B9BD5"/><text fill="#FFFFFF" font-family="Calibri,Calibri_MSFontService,sans-serif" font-weight="400" font-size="24" transform="translate(601.54 565)">PDP B2<tspan font-size="19" x="-28.9266" y="24">(timestamp UTC)</tspan><tspan fill="#000000" font-weight="700" font-size="24" x="-29.2628" y="-527">Local </tspan><tspan fill="#000000" font-weight="700" font-size="24" x="26.7639" y="-527">DMaaP</tspan><tspan fill="#000000" font-size="24" x="-14.3028" y="-498">Heartbeat</tspan></text><rect x="960.5" y="163.5" width="186" height="55" stroke="#41719C" stroke-width="1.33333" stroke-miterlimit="8" fill="#5B9BD5"/><text fill="#FFFFFF" font-family="Calibri,Calibri_MSFontService,sans-serif" font-weight="400" font-size="24" transform="translate(1034.96 198)">PAP</text><rect x="961.5" y="245.5" width="186" height="54" stroke="#41719C" stroke-width="1.33333" stroke-miterlimit="8" fill="#5B9BD5"/><text fill="#FFFFFF" font-family="Calibri,Calibri_MSFontService,sans-serif" font-weight="400" font-size="24" transform="translate(982.754 280)">DMaaP<tspan font-size="24" x="76.1666" y="0">Queue</tspan></text><rect x="960.5" y="559.5" width="186" height="54" stroke="#41719C" stroke-width="1.33333" stroke-miterlimit="8" fill="#5B9BD5"/><text fill="#FFFFFF" font-family="Calibri,Calibri_MSFontService,sans-serif" font-weight="400" font-size="24" transform="translate(1017.95 593)">PDP B2</text><rect x="962.5" y="299.5" width="184" height="38" stroke="#41719C" stroke-width="1.33333" stroke-miterlimit="8" fill="#8FAADC"/><text fill="#FFFFFF" font-family="Calibri,Calibri_MSFontService,sans-serif" font-weight="400" font-size="24" transform="translate(1018.93 326)">PDP B2</text><path d="M0 0.333333-50.4489 0.333333-50.1156 0-50.1156 127.756-50.4489 127.423-6.48283 127.423-6.48283 128.09-50.7823 128.09-50.7823-0.333333 0-0.333333ZM-7.81617 123.756 0.183832 127.756-7.81617 131.756Z" fill="#4472C4" transform="matrix(1 -1.22465e-16 -1.22465e-16 -1 960.5 314.256)"/><path d="M0 0.333333-52.4081 0.333333-52.0747 0-52.0747 267.644-52.4081 267.31-6.55673 267.31-6.55673 267.977-52.7414 267.977-52.7414-0.333333 0-0.333333ZM-7.89008 263.644 0.109921 267.644-7.89008 271.644Z" fill="#4472C4" transform="matrix(1 -1.22465e-16 -1.22465e-16 -1 962.5 592.144)"/><text font-family="Calibri,Calibri_MSFontService,sans-serif" font-weight="400" font-size="19" transform="translate(825.81 460)">Heartbeat<tspan font-size="19" x="0" y="-196">Heartbeat</tspan></text><path d="M743.5 206 950.184 206 950.184 207 743.5 207ZM942.435 201.402 951.176 206.5 942.435 211.599C942.197 211.738 941.891 211.657 941.752 211.419 941.613 211.18 941.693 210.874 941.932 210.735L949.932 206.068 949.932 206.932 941.932 202.265C941.693 202.126 941.613 201.82 941.752 201.582 941.891 201.343 942.197 201.262 942.435 201.402Z" fill="#4472C4"/><path d="M0.971386 0.492708 222.777 308.27 221.965 308.854 0.16011 1.07737ZM0.972428 10.0699-0.00135483-0.00188002 9.24514 4.1081C9.49747 4.22026 9.61111 4.51575 9.49895 4.76808 9.38679 5.02042 9.0913 5.13406 8.83896 5.02189L0.375725 1.26006 1.07649 0.755049 1.96779 9.97369C1.99436 10.2486 1.79309 10.4929 1.51822 10.5195 1.24336 10.5461 0.999002 10.3448 0.972428 10.0699ZM221.975 299.291 222.948 309.363 213.702 305.253C213.45 305.141 213.336 304.846 213.448 304.593 213.56 304.341 213.856 304.227 214.108 304.339L222.571 308.101 221.871 308.606 220.979 299.388C220.953 299.113 221.154 298.868 221.429 298.842 221.704 298.815 221.948 299.016 221.975 299.291Z" fill="#4472C4" transform="matrix(-1 0 0 1 954.447 224.5)"/><rect x="962.5" y="337.5" width="184" height="38" stroke="#41719C" stroke-width="1.33333" stroke-miterlimit="8" fill="#8FAADC"/><text fill="#FFFFFF" font-family="Calibri,Calibri_MSFontService,sans-serif" font-weight="400" font-size="24" transform="translate(1018.93 363)">PDP B2</text><path d="M0 0.333333-49.4694 0.333333-49.1361 0-49.1361 165.302-49.4694 164.968-6.37281 164.968-6.37281 165.635-49.8027 165.635-49.8027-0.333333 0-0.333333ZM-7.70614 161.302 0.293858 165.302-7.70614 169.302Z" fill="#C00000" transform="matrix(-1 0 0 1 1145.79 182.5)"/><path d="M0 0 48.9974 0.208714" stroke="#C00000" stroke-width="0.666667" stroke-miterlimit="8" fill="none" fill-rule="evenodd" transform="matrix(1 0 0 -1 1145.5 365.709)"/><path d="M1194.5 365.5 1195.38 586.052" stroke="#C00000" stroke-width="0.666667" stroke-miterlimit="8" fill="none" fill-rule="evenodd"/><path d="M7.14236e-07-0.333333 42.3306-0.333243 42.3306 0.333424-7.14236e-07 0.333333ZM40.9973-3.99991 48.9973 0.000104987 40.9973 4.00009Z" fill="#C00000" transform="matrix(-1 0 0 1 1195.5 586.5)"/><text font-family="Calibri,Calibri_MSFontService,sans-serif" font-weight="400" font-size="15" transform="translate(1108.25 472)">PDP-UPDATE<tspan font-size="15" x="-0.773315" y="-235">PDP</tspan>-UPDATE</text></g></svg>