<svg width="1280" height="720" xmlns="http://www.w3.org/2000/svg" xmlns:xlink="http://www.w3.org/1999/xlink" overflow="hidden"><defs><clipPath id="clip0"><rect x="0" y="0" width="1280" height="720"/></clipPath></defs><g clip-path="url(#clip0)"><rect x="0" y="0" width="1280" height="720" fill="#FFFFFF"/><text font-family="Calibri,Calibri_MSFontService,sans-serif" font-weight="400" font-size="24" transform="translate(1010.77 137)">Cluster B</text><path d="M504.5 134.668C504.5 110.275 524.275 90.5001 548.668 90.5001L725.332 90.5001C749.726 90.5001 769.5 110.275 769.5 134.668L769.5 652.332C769.5 676.725 749.726 696.5 725.332 696.5L548.668 696.5C524.275 696.5 504.5 676.725 504.5 652.332Z" stroke="#2F528F" stroke-width="1.33333" stroke-miterlimit="8" fill="none" fill-rule="evenodd"/><rect x="544.5" y="163.5" width="186" height="55" stroke="#41719C" stroke-width="1.33333" stroke-miterlimit="8" fill="#5B9BD5"/><text fill="#FFFFFF" font-family="Calibri,Calibri_MSFontService,sans-serif" font-weight="400" font-size="24" transform="translate(571.183 198)">PdpSubgroup</text><rect x="544.5" y="322.5" width="186" height="54" stroke="#41719C" stroke-width="1.33333" stroke-miterlimit="8" fill="#F4B183"/><text fill="#FFFFFF" font-family="Calibri,Calibri_MSFontService,sans-serif" font-weight="400" font-size="24" transform="translate(568.607 356)">PDP A1 <tspan font-size="19" x="76.5" y="0">(delete)</tspan></text><rect x="544.5" y="390.5" width="186" height="54" stroke="#41719C" stroke-width="1.33333" stroke-miterlimit="8" fill="#5B9BD5"/><text fill="#FFFFFF" font-family="Calibri,Calibri_MSFontService,sans-serif" font-weight="400" font-size="24" transform="translate(601.124 424)">PDP A2</text><rect x="544.5" y="458.5" width="186" height="54" stroke="#41719C" stroke-width="1.33333" stroke-miterlimit="8" fill="#5B9BD5"/><text fill="#FFFFFF" font-family="Calibri,Calibri_MSFontService,sans-serif" font-weight="400" font-size="24" transform="translate(601.54 493)">PDP B1<tspan fill="#000000" font-size="24" x="-15.5099" y="-356">Shared DB</tspan><tspan fill="#000000" font-weight="700" font-size="24" x="-79.9627" y="-455">Local or Shared </tspan><tspan fill="#000000" font-weight="700" font-size="24" x="77.4639" y="-455">DMaaP</tspan><tspan fill="#000000" font-size="24" x="-51.7227" y="-426">Missed Heartbeat</tspan></text><rect x="960.5" y="163.5" width="186" height="55" stroke="#41719C" stroke-width="1.33333" stroke-miterlimit="8" fill="#5B9BD5"/><text fill="#FFFFFF" font-family="Calibri,Calibri_MSFontService,sans-serif" font-weight="400" font-size="24" transform="translate(1034.96 198)">PAP</text><path d="M744.49 206 950.184 206 950.184 207 744.49 207ZM752.238 211.599 743.498 206.5 752.238 201.401C752.477 201.262 752.783 201.343 752.922 201.581 753.061 201.82 752.981 202.126 752.742 202.265L744.742 206.932 744.742 206.068 752.742 210.735C752.981 210.874 753.061 211.18 752.922 211.419 752.783 211.657 752.477 211.738 752.238 211.599ZM942.435 201.402 951.176 206.5 942.435 211.599C942.197 211.738 941.891 211.657 941.752 211.419 941.613 211.18 941.693 210.874 941.932 210.735L949.932 206.068 949.932 206.932 941.932 202.265C941.693 202.126 941.613 201.82 941.752 201.582 941.891 201.343 942.197 201.262 942.435 201.402Z" fill="#4472C4"/><path d="M1.10425-0.039017 210.673 97.1566 210.252 98.0638 0.683514 0.868164ZM5.78184 8.30177-0.00210251-0.00097505 10.0722-0.948858C10.3471-0.974726 10.5909-0.772822 10.6168-0.497894 10.6427-0.222966 10.4408 0.0208771 10.1659 0.0467449L0.944947 0.914334 1.30837 0.13073 6.60237 7.73016C6.76021 7.95675 6.70449 8.26839 6.47791 8.42623 6.25132 8.58407 5.93968 8.52835 5.78184 8.30177ZM205.583 89.7267 211.367 98.0294 201.292 98.9773C201.017 99.0032 200.774 98.8013 200.748 98.5264 200.722 98.2514 200.924 98.0076 201.199 97.9817L210.42 97.1141 210.056 97.8977 204.762 90.2983C204.604 90.0717 204.66 89.7601 204.887 89.6022 205.113 89.4444 205.425 89.5001 205.583 89.7267Z" fill="#4472C4" transform="matrix(-1 0 0 1 954.865 224.5)"/><path d="M0.265481-0.201572 29.5402 38.3547 29.0092 38.7579-0.265481 0.201572ZM31.6542 35.0755 33.3061 43.8659 25.2827 39.9133Z" fill="#4472C4" transform="matrix(-1 0 0 1 1179.81 116.5)"/><text font-family="Calibri,Calibri_MSFontService,sans-serif" font-weight="400" font-size="19" transform="translate(1157.47 89)">Timer <tspan font-size="19" x="-0.666748" y="23">Check</tspan></text><rect x="544.5" y="530.5" width="186" height="54" stroke="#41719C" stroke-width="1.33333" stroke-miterlimit="8" fill="#5B9BD5"/><text fill="#FFFFFF" font-family="Calibri,Calibri_MSFontService,sans-serif" font-weight="400" font-size="24" transform="translate(601.54 564)">PDP B2</text></g></svg>