<svg width="1280" height="720" xmlns="http://www.w3.org/2000/svg" xmlns:xlink="http://www.w3.org/1999/xlink" overflow="hidden"><defs><clipPath id="clip0"><rect x="0" y="0" width="1280" height="720"/></clipPath></defs><g clip-path="url(#clip0)"><rect x="0" y="0" width="1280" height="720" fill="#FFFFFF"/><path d="M93.5001 134.667C93.5001 110.274 113.274 90.5001 137.667 90.5001L314.333 90.5001C338.726 90.5001 358.5 110.274 358.5 134.667L358.5 513.333C358.5 537.726 338.726 557.5 314.333 557.5L137.667 557.5C113.274 557.5 93.5001 537.726 93.5001 513.333Z" stroke="#2F528F" stroke-width="1.33333" stroke-miterlimit="8" fill="none" fill-rule="evenodd"/><rect x="133.5" y="163.5" width="186" height="55" stroke="#41719C" stroke-width="1.33333" stroke-miterlimit="8" fill="#5B9BD5"/><text fill="#FFFFFF" font-family="Calibri,Calibri_MSFontService,sans-serif" font-weight="400" font-size="24" transform="translate(209.825 198)">API</text><rect x="133.5" y="240.5" width="186" height="54" stroke="#41719C" stroke-width="1.33333" stroke-miterlimit="8" fill="#5B9BD5"/><text fill="#FFFFFF" font-family="Calibri,Calibri_MSFontService,sans-serif" font-weight="400" font-size="24" transform="translate(207.541 275)">PAP<tspan fill="#000000" font-size="24" x="-25.37" y="-138">Cluster A</tspan></text><path d="M922.5 134.667C922.5 110.274 942.274 90.5001 966.667 90.5001L1143.33 90.5001C1167.73 90.5001 1187.5 110.274 1187.5 134.667L1187.5 513.333C1187.5 537.726 1167.73 557.5 1143.33 557.5L966.667 557.5C942.274 557.5 922.5 537.726 922.5 513.333Z" stroke="#2F528F" stroke-width="1.33333" stroke-miterlimit="8" fill="none" fill-rule="evenodd"/><rect x="961.5" y="163.5" width="186" height="55" stroke="#41719C" stroke-width="1.33333" stroke-miterlimit="8" fill="#5B9BD5"/><text fill="#FFFFFF" font-family="Calibri,Calibri_MSFontService,sans-serif" font-weight="400" font-size="24" transform="translate(1038.01 198)">API</text><rect x="961.5" y="240.5" width="186" height="54" stroke="#41719C" stroke-width="1.33333" stroke-miterlimit="8" fill="#5B9BD5"/><text fill="#FFFFFF" font-family="Calibri,Calibri_MSFontService,sans-serif" font-weight="400" font-size="24" transform="translate(1035.72 275)">PAP<tspan fill="#000000" font-size="24" x="-24.9534" y="-138">Cluster B</tspan></text><path d="M504.5 134.668C504.5 110.275 524.275 90.5001 548.668 90.5001L725.332 90.5001C749.726 90.5001 769.5 110.275 769.5 134.668L769.5 652.332C769.5 676.725 749.726 696.5 725.332 696.5L548.668 696.5C524.275 696.5 504.5 676.725 504.5 652.332Z" stroke="#2F528F" stroke-width="1.33333" stroke-miterlimit="8" fill="none" fill-rule="evenodd"/><rect x="544.5" y="163.5" width="186" height="55" stroke="#41719C" stroke-width="1.33333" stroke-miterlimit="8" fill="#5B9BD5"/><text fill="#FFFFFF" font-family="Calibri,Calibri_MSFontService,sans-serif" font-weight="400" font-size="24" transform="translate(582.574 198)">Policy Type</text><rect x="544.5" y="240.5" width="186" height="54" stroke="#41719C" stroke-width="1.33333" stroke-miterlimit="8" fill="#5B9BD5"/><text fill="#FFFFFF" font-family="Calibri,Calibri_MSFontService,sans-serif" font-weight="400" font-size="24" transform="translate(608.363 275)">Policy<tspan fill="#000000" font-size="24" x="-22.3333" y="-138">Shared DB</tspan></text><rect x="544.5" y="391.5" width="186" height="54" stroke="#41719C" stroke-width="1.33333" stroke-miterlimit="8" fill="#5B9BD5"/><text fill="#FFFFFF" font-family="Calibri,Calibri_MSFontService,sans-serif" font-weight="400" font-size="24" transform="translate(587.433 426)">PdpGroup</text><rect x="544.5" y="468.5" width="186" height="54" stroke="#41719C" stroke-width="1.33333" stroke-miterlimit="8" fill="#5B9BD5"/><text fill="#FFFFFF" font-family="Calibri,Calibri_MSFontService,sans-serif" font-weight="400" font-size="24" transform="translate(571.183 503)">PdpSubgroup</text><path d="M327.49 190 533.184 190 533.184 191 327.49 191ZM335.238 195.599 326.498 190.5 335.238 185.401C335.477 185.262 335.783 185.343 335.922 185.581 336.061 185.82 335.981 186.126 335.742 186.265L327.742 190.932 327.742 190.068 335.742 194.735C335.981 194.874 336.061 195.18 335.922 195.419 335.783 195.657 335.477 195.738 335.238 195.599ZM525.435 185.402 534.176 190.5 525.435 195.599C525.197 195.738 524.891 195.657 524.752 195.419 524.613 195.18 524.693 194.874 524.932 194.735L532.932 190.068 532.932 190.932 524.932 186.265C524.693 186.126 524.613 185.82 524.752 185.582 524.891 185.343 525.197 185.262 525.435 185.402Z" fill="#4472C4"/><path d="M327.591 206.3 533.367 266.988 533.084 267.947 327.308 207.26ZM333.439 213.862 326.498 206.499 336.323 204.081C336.592 204.016 336.862 204.179 336.928 204.448 336.994 204.716 336.831 204.987 336.562 205.053L327.569 207.266 327.813 206.437 334.167 213.176C334.356 213.377 334.347 213.694 334.146 213.883 333.945 214.072 333.628 214.063 333.439 213.862ZM527.235 260.385 534.176 267.748 524.35 270.166C524.082 270.232 523.811 270.068 523.745 269.8 523.679 269.532 523.843 269.261 524.111 269.195L533.104 266.982 532.86 267.81 526.507 261.071C526.318 260.87 526.327 260.554 526.528 260.364 526.729 260.175 527.045 260.184 527.235 260.385Z" fill="#4472C4"/><path d="M0.989698-0.499999 206.684-0.499896 206.684 0.500104 0.989698 0.5ZM8.73806 5.09856-0.0023173-1.30829e-08 8.73807-5.09855C8.97659-5.23769 9.28275-5.15712 9.42189-4.9186 9.56103-4.68007 9.48046-4.37391 9.24194-4.23477L1.24194 0.43189 1.24194-0.431889 9.24193 4.23478C9.48046 4.37392 9.56103 4.68008 9.42189 4.91861 9.28275 5.15713 8.97659 5.2377 8.73806 5.09856ZM198.935-5.09846 207.676 0.000104863 198.935 5.09866C198.697 5.2378 198.391 5.15723 198.252 4.9187 198.112 4.68018 198.193 4.37402 198.432 4.23488L206.432-0.431785 206.432 0.431994 198.432-4.23468C198.193-4.37382 198.112-4.67998 198.252-4.9185 198.391-5.15703 198.697-5.2376 198.935-5.09846Z" fill="#4472C4" transform="matrix(-1 0 0 1 950.174 189.5)"/><path d="M1.09072-0.199618 206.867 60.488 206.584 61.4472 0.807841 0.759539ZM6.93893 7.36209-0.00222267-0.000655553 9.82343-2.41854C10.0916-2.48453 10.3624-2.32065 10.4284-2.0525 10.4944-1.78436 10.3305-1.5135 10.0624-1.44751L1.06904 0.765561 1.31338-0.0629385 7.66656 6.67612C7.85598 6.87705 7.84666 7.1935 7.64573 7.38292 7.4448 7.57234 7.12835 7.56302 6.93893 7.36209ZM200.735 53.8851 207.676 61.2478 197.85 63.6657C197.582 63.7317 197.311 63.5678 197.245 63.2997 197.179 63.0315 197.343 62.7607 197.611 62.6947L206.604 60.4816 206.36 61.3101 200.007 54.571C199.817 54.3701 199.827 54.0537 200.028 53.8642 200.229 53.6748 200.545 53.6841 200.735 53.8851Z" fill="#4472C4" transform="matrix(-1 0 0 1 950.174 205.5)"/><path d="M1.68513e-07-0.333333 201.007-0.333232 201.007 0.333435-1.68513e-07 0.333333ZM199.673-3.9999 207.673 0.000104987 199.673 4.0001Z" fill="#4472C4" transform="matrix(-1 0 0 1 534.174 284.5)"/><path d="M742.5 281.167 943.507 281.167 943.507 281.833 742.5 281.833ZM942.174 277.5 950.174 281.5 942.174 285.5Z" fill="#4472C4"/><path d="M0.0942916-0.319719 201.373 59.0416 201.185 59.681-0.0942916 0.319719ZM201.132 55.1475 207.673 61.2471 198.869 62.8208Z" fill="#4472C4" transform="matrix(-1 0 0 1 534.174 207.5)"/><path d="M742.594 204.18 943.873 263.542 943.685 264.181 742.406 204.82ZM943.632 259.648 950.174 265.747 941.369 267.321Z" fill="#4472C4"/><path d="M320.615 302.496 533.875 408.388 533.43 409.284 320.171 303.391ZM325.059 310.953 319.498 302.499 329.594 301.82C329.869 301.801 330.108 302.009 330.126 302.285 330.145 302.56 329.937 302.799 329.661 302.817L320.42 303.439 320.805 302.666 325.894 310.403C326.046 310.634 325.982 310.944 325.751 311.096 325.521 311.247 325.211 311.183 325.059 310.953ZM528.979 400.823 534.539 409.277 524.444 409.956C524.168 409.974 523.93 409.766 523.911 409.491 523.893 409.215 524.101 408.977 524.376 408.958L533.617 408.336 533.233 409.11 528.143 401.372C527.991 401.142 528.055 400.832 528.286 400.68 528.517 400.528 528.827 400.592 528.979 400.823Z" fill="#4472C4"/><path d="M1.11531-0.00445179 214.375 105.888 213.93 106.784 0.670572 0.89121ZM5.55888 8.45269-0.00207544-0.00103059 10.0939-0.680496C10.3694-0.699039 10.6078-0.490718 10.6263-0.215199 10.6448 0.0603198 10.4365 0.298704 10.161 0.317247L0.920282 0.939156 1.30443 0.165501 6.39433 7.90312C6.54608 8.13382 6.48209 8.44387 6.25138 8.59563 6.02068 8.74739 5.71064 8.68339 5.55888 8.45269ZM209.479 98.3227 215.039 106.776 204.944 107.456C204.668 107.474 204.43 107.266 204.411 106.991 204.393 106.715 204.601 106.477 204.876 106.458L214.117 105.836 213.733 106.61 208.643 98.8723C208.491 98.6416 208.555 98.3315 208.786 98.1798 209.017 98.028 209.327 98.092 209.479 98.3227Z" fill="#4472C4" transform="matrix(-1 0 0 1 954.537 301.5)"/><path d="M312.593 316.696 533.385 482.558 532.784 483.358 311.992 317.495ZM315.424 325.825 311.498 316.499 321.549 317.672C321.823 317.704 322.019 317.952 321.987 318.226 321.955 318.501 321.707 318.697 321.433 318.665L312.234 317.591 312.752 316.901 316.346 325.437C316.453 325.691 316.333 325.984 316.079 326.092 315.824 326.199 315.531 326.079 315.424 325.825ZM529.953 474.228 533.879 483.555 523.829 482.381C523.554 482.349 523.358 482.101 523.39 481.827 523.422 481.553 523.67 481.356 523.945 481.388L533.144 482.462 532.625 483.153 529.031 474.616C528.924 474.362 529.044 474.069 529.298 473.962 529.553 473.854 529.846 473.974 529.953 474.228Z" fill="#4472C4"/><path d="M1.09278 0.195548 221.885 166.058 221.284 166.858 0.492156 0.995082ZM3.92406 9.32474-0.0018528-0.0013919 10.0487 1.17182C10.323 1.20383 10.5193 1.45214 10.4873 1.72642 10.4553 2.0007 10.207 2.19709 9.93273 2.16507L0.733565 1.09124 1.25237 0.400625 4.84573 8.93676C4.95286 9.19127 4.83339 9.48444 4.57888 9.59158 4.32437 9.69872 4.0312 9.57925 3.92406 9.32474ZM218.453 157.728 222.379 167.055 212.329 165.881C212.054 165.849 211.858 165.601 211.89 165.327 211.922 165.053 212.17 164.856 212.444 164.888L221.644 165.962 221.125 166.652 217.531 158.116C217.424 157.862 217.544 157.569 217.798 157.462 218.053 157.354 218.346 157.474 218.453 157.728Z" fill="#4472C4" transform="matrix(-1 0 0 1 961.877 315.5)"/></g></svg>
