<svg width="1280" height="720" xmlns="http://www.w3.org/2000/svg" xmlns:xlink="http://www.w3.org/1999/xlink" overflow="hidden"><defs><clipPath id="clip0"><rect x="0" y="0" width="1280" height="720"/></clipPath></defs><g clip-path="url(#clip0)"><rect x="0" y="0" width="1280" height="720" fill="#FFFFFF"/><rect x="133.5" y="163.5" width="186" height="55" stroke="#41719C" stroke-width="1.33333" stroke-miterlimit="8" fill="#5B9BD5"/><text fill="#FFFFFF" font-family="Calibri,Calibri_MSFontService,sans-serif" font-weight="400" font-size="24" transform="translate(207.541 198)">PAP</text><rect x="133.5" y="229.5" width="186" height="70" stroke="#41719C" stroke-width="1.33333" stroke-miterlimit="8" fill="#5B9BD5"/><text fill="#FFFFFF" font-family="Calibri,Calibri_MSFontService,sans-serif" font-weight="400" font-size="24" transform="translate(155.331 260)">DMaaP<tspan font-size="24" x="76.1667" y="0">Queue</tspan><tspan font-size="19" x="39.3733" y="24">(shared)</tspan></text><rect x="133.5" y="485.5" width="186" height="54" stroke="#41719C" stroke-width="1.33333" stroke-miterlimit="8" fill="#5B9BD5"/><text fill="#FFFFFF" font-family="Calibri,Calibri_MSFontService,sans-serif" font-weight="400" font-size="24" transform="translate(190.114 520)">PDP A1</text><rect x="133.5" y="559.5" width="186" height="54" stroke="#41719C" stroke-width="1.33333" stroke-miterlimit="8" fill="#5B9BD5"/><text fill="#FFFFFF" font-family="Calibri,Calibri_MSFontService,sans-serif" font-weight="400" font-size="24" transform="translate(190.114 593)">PDP A2<tspan fill="#000000" font-size="24" x="-7.94304" y="-456">Cluster A</tspan><tspan fill="#000000" font-size="24" x="820.657" y="-456">Cluster B</tspan></text><path d="M504.5 134.668C504.5 110.275 524.275 90.5001 548.668 90.5001L725.332 90.5001C749.726 90.5001 769.5 110.275 769.5 134.668L769.5 652.332C769.5 676.725 749.726 696.5 725.332 696.5L548.668 696.5C524.275 696.5 504.5 676.725 504.5 652.332Z" stroke="#2F528F" stroke-width="1.33333" stroke-miterlimit="8" fill="none" fill-rule="evenodd"/><rect x="544.5" y="163.5" width="186" height="55" stroke="#41719C" stroke-width="1.33333" stroke-miterlimit="8" fill="#5B9BD5"/><text fill="#FFFFFF" font-family="Calibri,Calibri_MSFontService,sans-serif" font-weight="400" font-size="24" transform="translate(571.183 198)">PdpSubgroup</text><rect x="544.5" y="322.5" width="186" height="54" stroke="#41719C" stroke-width="1.33333" stroke-miterlimit="8" fill="#5B9BD5"/><text fill="#FFFFFF" font-family="Calibri,Calibri_MSFontService,sans-serif" font-weight="400" font-size="24" transform="translate(601.124 356)">PDP A1</text><rect x="544.5" y="390.5" width="186" height="54" stroke="#41719C" stroke-width="1.33333" stroke-miterlimit="8" fill="#5B9BD5"/><text fill="#FFFFFF" font-family="Calibri,Calibri_MSFontService,sans-serif" font-weight="400" font-size="24" transform="translate(601.124 424)">PDP A2</text><rect x="544.5" y="458.5" width="186" height="54" stroke="#41719C" stroke-width="1.33333" stroke-miterlimit="8" fill="#5B9BD5"/><text fill="#FFFFFF" font-family="Calibri,Calibri_MSFontService,sans-serif" font-weight="400" font-size="24" transform="translate(601.54 493)">PDP B1<tspan fill="#000000" font-size="24" x="-15.5099" y="-356">Shared DB</tspan></text><rect x="544.5" y="530.5" width="186" height="54" stroke="#41719C" stroke-width="1.33333" stroke-miterlimit="8" fill="#5B9BD5"/><text fill="#FFFFFF" font-family="Calibri,Calibri_MSFontService,sans-serif" font-weight="400" font-size="24" transform="translate(601.54 564)">PDP B2</text><rect x="133.5" y="299.5" width="186" height="38" stroke="#41719C" stroke-width="1.33333" stroke-miterlimit="8" fill="#8FAADC"/><text fill="#FFFFFF" font-family="Calibri,Calibri_MSFontService,sans-serif" font-weight="400" font-size="24" transform="translate(190.224 326)">PDP A1</text><rect x="133.5" y="338.5" width="186" height="38" stroke="#41719C" stroke-width="1.33333" stroke-miterlimit="8" fill="#8FAADC"/><text fill="#FFFFFF" font-family="Calibri,Calibri_MSFontService,sans-serif" font-weight="400" font-size="24" transform="translate(190.151 364)">PDP A2</text><rect x="133.5" y="376.5" width="186" height="38" stroke="#41719C" stroke-width="1.33333" stroke-miterlimit="8" fill="#8FAADC"/><text fill="#FFFFFF" font-family="Calibri,Calibri_MSFontService,sans-serif" font-weight="400" font-size="24" transform="translate(190.531 403)">PDP B1</text><rect x="133.5" y="414.5" width="186" height="38" stroke="#41719C" stroke-width="1.33333" stroke-miterlimit="8" fill="#8FAADC"/><text fill="#FFFFFF" font-family="Calibri,Calibri_MSFontService,sans-serif" font-weight="400" font-size="24" transform="translate(190.531 441)">PDP B2</text><path d="M327.49 190 533.184 190 533.184 191 327.49 191ZM335.238 195.599 326.498 190.5 335.238 185.401C335.477 185.262 335.783 185.343 335.922 185.581 336.061 185.82 335.981 186.126 335.742 186.265L327.742 190.932 327.742 190.068 335.742 194.735C335.981 194.874 336.061 195.18 335.922 195.419 335.783 195.657 335.477 195.738 335.238 195.599ZM525.435 185.402 534.176 190.5 525.435 195.599C525.197 195.738 524.891 195.657 524.752 195.419 524.613 195.18 524.693 194.874 524.932 194.735L532.932 190.068 532.932 190.932 524.932 186.265C524.693 186.126 524.613 185.82 524.752 185.582 524.891 185.343 525.197 185.262 525.435 185.402Z" fill="#4472C4"/><path d="M327.545 206.882 514.265 405.505 513.536 406.19 326.817 207.567ZM328.77 216.359 326.498 206.498 336.2 209.374C336.465 209.453 336.616 209.731 336.537 209.996 336.459 210.261 336.18 210.412 335.916 210.333L327.036 207.701 327.665 207.109 329.745 216.134C329.807 216.403 329.639 216.672 329.37 216.734 329.101 216.796 328.832 216.628 328.77 216.359ZM512.311 396.713 514.583 406.574 504.882 403.698C504.617 403.619 504.466 403.341 504.545 403.076 504.623 402.811 504.901 402.66 505.166 402.739L514.046 405.371 513.416 405.963 511.337 396.938C511.275 396.669 511.443 396.4 511.712 396.338 511.981 396.276 512.25 396.444 512.311 396.713Z" fill="#4472C4"/><path d="M133.184 190.5 81.5001 190.5" stroke="#4472C4" stroke-width="0.666667" stroke-miterlimit="8" fill="none" fill-rule="evenodd"/><path d="M81.5001 190.5 81.5002 434" stroke="#4472C4" stroke-width="0.666667" stroke-miterlimit="8" fill="none" fill-rule="evenodd"/><path d="M83.5001 318.167 126.172 318.167 126.172 318.833 83.5001 318.833ZM124.839 314.5 132.839 318.5 124.839 322.5Z" fill="#4472C4"/><path d="M369.5 319.5 369.5 584.573" stroke="#4472C4" stroke-width="0.666667" stroke-miterlimit="8" fill="none" fill-rule="evenodd"/><text font-family="Calibri,Calibri_MSFontService,sans-serif" font-weight="700" font-size="24" transform="translate(563.011 38)">Shared <tspan font-size="24" x="74.5667" y="0">DMaaP</tspan><tspan font-weight="400" font-size="24" x="-43.3533" y="29">Deploy/</tspan><tspan font-weight="400" font-size="24" x="34.3533" y="29">Undeploy</tspan><tspan font-weight="400" font-size="24" x="134.06" y="29">Policy</tspan></text><path d="M117.766 120.298 147.04 158.855 146.509 159.258 117.235 120.702ZM149.154 155.576 150.806 164.366 142.783 160.413Z" fill="#4472C4"/><text font-family="Calibri,Calibri_MSFontService,sans-serif" font-weight="400" font-size="19" transform="translate(85.7548 108)">Request</text><path d="M82.5001 359.167 125.172 359.167 125.172 359.833 82.5001 359.833ZM123.839 355.5 131.839 359.5 123.839 363.5Z" fill="#4472C4"/><path d="M83.5001 398.167 126.172 398.167 126.172 398.833 83.5001 398.833ZM124.839 394.5 132.839 398.5 124.839 402.5Z" fill="#4472C4"/><path d="M81.5001 434.167 124.172 434.167 124.172 434.833 81.5001 434.833ZM122.839 430.5 130.839 434.5 122.839 438.5Z" fill="#4472C4"/><path d="M320.5 319.167 363.172 319.167 363.172 319.833 320.5 319.833ZM361.839 315.5 369.839 319.5 361.839 323.5Z" fill="#4472C4"/><path d="M320.5 358.167 363.172 358.167 363.172 358.833 320.5 358.833ZM361.839 354.5 369.839 358.5 361.839 362.5Z" fill="#4472C4"/><path d="M7.09291e-07-0.333333 42.6722-0.333243 42.6722 0.333424-7.09291e-07 0.333333ZM41.3389-3.99991 49.3389 0.000104987 41.3389 4.00009Z" fill="#4472C4" transform="matrix(-1 0 0 1 369.839 512.5)"/><path d="M7.09291e-07-0.333333 42.6722-0.333243 42.6722 0.333424-7.09291e-07 0.333333ZM41.3389-3.99991 49.3389 0.000104987 41.3389 4.00009Z" fill="#4472C4" transform="matrix(-1 0 0 1 369.839 584.5)"/><rect x="961.5" y="485.5" width="186" height="54" stroke="#41719C" stroke-width="1.33333" stroke-miterlimit="8" fill="#5B9BD5"/><text fill="#FFFFFF" font-family="Calibri,Calibri_MSFontService,sans-serif" font-weight="400" font-size="24" transform="translate(1019.01 520)">PDP B1</text><rect x="961.5" y="559.5" width="186" height="54" stroke="#41719C" stroke-width="1.33333" stroke-miterlimit="8" fill="#5B9BD5"/><text fill="#FFFFFF" font-family="Calibri,Calibri_MSFontService,sans-serif" font-weight="400" font-size="24" transform="translate(1019.01 593)">PDP B2</text><path d="M319.5 395.167 851.767 395.167 851.767 512.884 851.434 512.551 955.475 512.551 955.475 513.218 851.101 513.218 851.101 395.5 851.434 395.833 319.5 395.833ZM954.142 508.884 962.142 512.884 954.142 516.884Z" fill="#4472C4"/><path d="M319.5 433.167 476.58 433.167 476.58 586.219 476.247 585.886 955.475 585.886 955.475 586.553 475.913 586.553 475.913 433.5 476.247 433.833 319.5 433.833ZM954.142 582.219 962.142 586.219 954.142 590.219Z" fill="#4472C4"/><text font-family="Calibri,Calibri_MSFontService,sans-serif" font-weight="400" font-size="15" transform="translate(38.6359 458)">PDP-<tspan font-size="15" x="28.5" y="0">UPDATE</tspan><tspan font-size="15" x="337.751" y="-37">PDP</tspan>-UPDATE<tspan font-size="15" x="820.355" y="96">PDP</tspan>-UPDATE</text></g></svg>