<svg width="1280" height="720" xmlns="http://www.w3.org/2000/svg" xmlns:xlink="http://www.w3.org/1999/xlink" overflow="hidden"><defs><clipPath id="clip0"><rect x="0" y="0" width="1280" height="720"/></clipPath></defs><g clip-path="url(#clip0)"><rect x="0" y="0" width="1280" height="720" fill="#FFFFFF"/><text font-family="Calibri,Calibri_MSFontService,sans-serif" font-weight="400" font-size="24" transform="translate(1010.77 137)">Cluster B</text><path d="M504.5 134.668C504.5 110.275 524.275 90.5001 548.668 90.5001L725.332 90.5001C749.726 90.5001 769.5 110.275 769.5 134.668L769.5 652.332C769.5 676.725 749.726 696.5 725.332 696.5L548.668 696.5C524.275 696.5 504.5 676.725 504.5 652.332Z" stroke="#2F528F" stroke-width="1.33333" stroke-miterlimit="8" fill="none" fill-rule="evenodd"/><rect x="544.5" y="163.5" width="186" height="55" stroke="#41719C" stroke-width="1.33333" stroke-miterlimit="8" fill="#5B9BD5"/><text fill="#FFFFFF" font-family="Calibri,Calibri_MSFontService,sans-serif" font-weight="400" font-size="24" transform="translate(571.183 198)">PdpSubgroup</text><rect x="544.5" y="322.5" width="186" height="54" stroke="#41719C" stroke-width="1.33333" stroke-miterlimit="8" fill="#5B9BD5"/><text fill="#FFFFFF" font-family="Calibri,Calibri_MSFontService,sans-serif" font-weight="400" font-size="24" transform="translate(601.124 356)">PDP A1</text><rect x="544.5" y="390.5" width="186" height="54" stroke="#41719C" stroke-width="1.33333" stroke-miterlimit="8" fill="#5B9BD5"/><text fill="#FFFFFF" font-family="Calibri,Calibri_MSFontService,sans-serif" font-weight="400" font-size="24" transform="translate(601.124 424)">PDP A2</text><rect x="544.5" y="458.5" width="186" height="54" stroke="#41719C" stroke-width="1.33333" stroke-miterlimit="8" fill="#5B9BD5"/><text fill="#FFFFFF" font-family="Calibri,Calibri_MSFontService,sans-serif" font-weight="400" font-size="24" transform="translate(601.54 493)">PDP B1<tspan fill="#000000" font-size="24" x="-15.5099" y="-356">Shared DB</tspan><tspan fill="#000000" font-weight="700" font-size="24" x="-38.5328" y="-455">Shared </tspan><tspan fill="#000000" font-weight="700" font-size="24" x="36.0339" y="-455">DMaaP</tspan><tspan fill="#000000" font-size="24" x="-14.3061" y="-426">Heartbeat</tspan></text><rect x="960.5" y="163.5" width="186" height="55" stroke="#41719C" stroke-width="1.33333" stroke-miterlimit="8" fill="#5B9BD5"/><text fill="#FFFFFF" font-family="Calibri,Calibri_MSFontService,sans-serif" font-weight="400" font-size="24" transform="translate(1034.96 198)">PAP</text><rect x="960.5" y="559.5" width="186" height="54" stroke="#41719C" stroke-width="1.33333" stroke-miterlimit="8" fill="#5B9BD5"/><text fill="#FFFFFF" font-family="Calibri,Calibri_MSFontService,sans-serif" font-weight="400" font-size="24" transform="translate(1017.95 593)">PDP B2</text><rect x="961.5" y="299.5" width="185" height="38" stroke="#41719C" stroke-width="1.33333" stroke-miterlimit="8" fill="#8FAADC"/><text fill="#FFFFFF" font-family="Calibri,Calibri_MSFontService,sans-serif" font-weight="400" font-size="24" transform="translate(1018.54 326)">PDP B2</text><path d="M0 0.333333-50.4489 0.333333-50.1156 0-50.1156 127.756-50.4489 127.423-6.48283 127.423-6.48283 128.09-50.7823 128.09-50.7823-0.333333 0-0.333333ZM-7.81617 123.756 0.183832 127.756-7.81617 131.756Z" fill="#4472C4" transform="matrix(1 -1.22465e-16 -1.22465e-16 -1 960.5 305.256)"/><path d="M0 0.333333-52.4081 0.333333-52.0747 0-52.0747 267.644-52.4081 267.31-6.55673 267.31-6.55673 267.977-52.7414 267.977-52.7414-0.333333 0-0.333333ZM-7.89008 263.644 0.109921 267.644-7.89008 271.644Z" fill="#4472C4" transform="matrix(1 -1.22465e-16 -1.22465e-16 -1 962.5 595.144)"/><text font-family="Calibri,Calibri_MSFontService,sans-serif" font-weight="400" font-size="19" transform="translate(825.81 460)">Heartbeat<tspan font-size="19" x="0" y="-196">Heartbeat</tspan></text><path d="M739.5 195 946.184 195 946.184 196 739.5 196ZM938.435 190.402 947.176 195.5 938.435 200.599C938.197 200.738 937.891 200.657 937.752 200.419 937.613 200.18 937.693 199.874 937.932 199.735L945.932 195.068 945.932 195.932 937.932 191.265C937.693 191.126 937.613 190.82 937.752 190.582 937.891 190.343 938.197 190.262 938.435 190.402Z" fill="#4472C4"/><path d="M0.971386 0.492708 222.777 308.27 221.965 308.854 0.16011 1.07737ZM0.972428 10.0699-0.00135483-0.00188002 9.24514 4.1081C9.49747 4.22026 9.61111 4.51575 9.49895 4.76808 9.38679 5.02042 9.0913 5.13406 8.83896 5.02189L0.375725 1.26006 1.07649 0.755049 1.96779 9.97369C1.99436 10.2486 1.79309 10.4929 1.51822 10.5195 1.24336 10.5461 0.999002 10.3448 0.972428 10.0699ZM221.975 299.291 222.948 309.363 213.702 305.253C213.45 305.141 213.336 304.846 213.448 304.593 213.56 304.341 213.856 304.227 214.108 304.339L222.571 308.101 221.871 308.606 220.979 299.388C220.953 299.113 221.154 298.868 221.429 298.842 221.704 298.815 221.948 299.016 221.975 299.291Z" fill="#4472C4" transform="matrix(-1 0 0 1 954.447 224.5)"/><rect x="133.5" y="163.5" width="186" height="55" stroke="#41719C" stroke-width="1.33333" stroke-miterlimit="8" fill="#5B9BD5"/><text fill="#FFFFFF" font-family="Calibri,Calibri_MSFontService,sans-serif" font-weight="400" font-size="24" transform="translate(207.541 198)">PAP<tspan fill="#000000" font-size="24" x="-25.3701" y="-61">Cluster A</tspan></text><path d="M961.766 319.507 226.167 319.507 226.167 225.167 226.833 225.167 226.833 319.174 226.5 318.841 961.766 318.841ZM222.5 226.5 226.5 218.5 230.5 226.5Z" fill="#4472C4"/><text font-family="Calibri,Calibri_MSFontService,sans-serif" font-weight="400" font-size="19" transform="translate(235.141 264)">Heartbeat</text><path d="M321.477 225.016 539.22 532.759 538.404 533.336 320.661 225.593ZM321.385 234.578 320.499 224.498 329.709 228.688C329.961 228.803 330.072 229.099 329.957 229.35 329.843 229.602 329.546 229.713 329.295 229.599L320.865 225.763 321.57 225.264 322.381 234.49C322.405 234.766 322.202 235.008 321.927 235.032 321.652 235.057 321.409 234.853 321.385 234.578ZM538.503 523.783 539.389 533.863 530.179 529.673C529.928 529.559 529.817 529.262 529.931 529.011 530.045 528.76 530.342 528.648 530.593 528.763L539.023 532.598 538.318 533.097 537.507 523.871C537.483 523.596 537.686 523.353 537.961 523.329 538.236 523.305 538.479 523.508 538.503 523.783Z" fill="#4472C4"/><path d="M2.52769e-07-0.5 206.684-0.499896 206.684 0.500104-2.52769e-07 0.5ZM198.935-5.09846 207.676 0.000104863 198.935 5.09866C198.697 5.2378 198.391 5.15723 198.252 4.9187 198.112 4.68018 198.193 4.37402 198.432 4.23488L206.432-0.431785 206.432 0.431994 198.432-4.23468C198.193-4.37382 198.112-4.67998 198.252-4.9185 198.391-5.15703 198.697-5.2376 198.935-5.09846Z" fill="#4472C4" transform="matrix(-1 0 0 1 531.174 195.5)"/><rect x="961.5" y="337.5" width="185" height="38" stroke="#41719C" stroke-width="1.33333" stroke-miterlimit="8" fill="#8FAADC"/><text fill="#FFFFFF" font-family="Calibri,Calibri_MSFontService,sans-serif" font-weight="400" font-size="24" transform="translate(1018.19 363)">PDP B2</text><rect x="961.5" y="374.5" width="185" height="38" stroke="#41719C" stroke-width="1.33333" stroke-miterlimit="8" fill="#8FAADC"/><text fill="#FFFFFF" font-family="Calibri,Calibri_MSFontService,sans-serif" font-weight="400" font-size="24" transform="translate(1018.72 400)">PDP B2</text><path d="M194.5 218.833 187.341 218.833 187.674 218.5 187.674 393.643 187.341 393.309 955.233 393.309 955.233 393.976 187.007 393.976 187.007 218.167 194.5 218.167ZM953.899 389.643 961.899 393.643 953.899 397.643Z" fill="#C00000"/><path d="M0 0.333333-49.4694 0.333333-49.1361 0-49.1361 165.302-49.4694 164.968-6.37281 164.968-6.37281 165.635-49.8027 165.635-49.8027-0.333333 0-0.333333ZM-7.70614 161.302 0.293858 165.302-7.70614 169.302Z" fill="#C00000" transform="matrix(-1 0 0 1 1145.79 182.5)"/><path d="M0.333329-0.00173333 1.06444 140.594 0.397779 140.598-0.333329 0.00173333ZM4.72412 139.242 0.765774 147.262-3.27577 139.283Z" fill="#C00000" transform="matrix(-1 0 0 1 992.266 412.5)"/><path d="M0 0 48.9974 0.208714" stroke="#C00000" stroke-width="0.666667" stroke-miterlimit="8" fill="none" fill-rule="evenodd" transform="matrix(1 0 0 -1 1145.5 365.709)"/><path d="M1194.5 365.5 1195.38 586.052" stroke="#C00000" stroke-width="0.666667" stroke-miterlimit="8" fill="none" fill-rule="evenodd"/><path d="M7.14236e-07-0.333333 42.3306-0.333243 42.3306 0.333424-7.14236e-07 0.333333ZM40.9973-3.99991 48.9973 0.000104987 40.9973 4.00009Z" fill="#C00000" transform="matrix(-1 0 0 1 1195.5 586.5)"/><rect x="544.5" y="530.5" width="186" height="78" stroke="#41719C" stroke-width="1.33333" stroke-miterlimit="8" fill="#5B9BD5"/><text fill="#FFFFFF" font-family="Calibri,Calibri_MSFontService,sans-serif" font-weight="400" font-size="24" transform="translate(601.54 565)">PDP B2<tspan font-size="19" x="-28.9266" y="24">(timestamp UTC)</tspan><tspan fill="#000000" font-size="15" x="-400.307" y="-187">PDP</tspan><tspan fill="#000000" font-size="15" x="-376.307" y="-187">-</tspan><tspan fill="#000000" font-size="15" x="-371.807" y="-187">UPDATE</tspan><tspan fill="#000000" font-size="15" x="401.071" y="-119">PDP</tspan><tspan fill="#000000" font-size="15" x="425.071" y="-119">-</tspan><tspan fill="#000000" font-size="15" x="429.571" y="-119">UPDATE</tspan><tspan fill="#000000" font-size="15" x="506.715" y="-93">PDP</tspan><tspan fill="#000000" font-size="15" x="530.715" y="-93">-</tspan><tspan fill="#000000" font-size="15" x="535.215" y="-93">UPDATE</tspan><tspan fill="#000000" font-size="15" x="561.135" y="-395">PDP</tspan><tspan fill="#000000" font-size="15" x="585.135" y="-395">-</tspan><tspan fill="#000000" font-size="15" x="589.635" y="-395">UPDATE</tspan></text><rect x="960.5" y="230.5" width="186" height="70" stroke="#41719C" stroke-width="1.33333" stroke-miterlimit="8" fill="#5B9BD5"/><text fill="#FFFFFF" font-family="Calibri,Calibri_MSFontService,sans-serif" font-weight="400" font-size="24" transform="translate(982.314 261)">DMaaP<tspan font-size="24" x="76.1667" y="0">Queue</tspan><tspan font-size="19" x="39.3734" y="24">(shared)</tspan></text></g></svg>