<?xml version="1.0" encoding="UTF-8" standalone="no"?><svg xmlns="http://www.w3.org/2000/svg" xmlns:xlink="http://www.w3.org/1999/xlink" contentScriptType="application/ecmascript" contentStyleType="text/css" height="464px" preserveAspectRatio="none" style="width:382px;height:464px;" version="1.1" viewBox="0 0 382 464" width="382px" zoomAndPan="magnify"><defs><filter height="300%" id="f1j1xcr4r55ehk" width="300%" x="-1" y="-1"><feGaussianBlur result="blurOut" stdDeviation="2.0"/><feColorMatrix in="blurOut" result="blurOut2" type="matrix" values="0 0 0 0 0 0 0 0 0 0 0 0 0 0 0 0 0 0 .4 0"/><feOffset dx="4.0" dy="4.0" in="blurOut2" result="blurOut3"/><feBlend in="SourceGraphic" in2="blurOut3" mode="normal"/></filter></defs><g><text fill="#000000" font-family="sans-serif" font-size="18" lengthAdjust="spacingAndGlyphs" textLength="368" x="2" y="16.708">Runtime Relationships between Concepts</text><rect fill="#FEFECE" filter="url(#f1j1xcr4r55ehk)" height="33.9688" style="stroke: #A80036; stroke-width: 1.5;" width="101" x="169.5" y="28.9531"/><text fill="#000000" font-family="sans-serif" font-size="12" lengthAdjust="spacingAndGlyphs" textLength="87" x="176.5" y="42.0918">PDPSubGroup</text><line style="stroke: #A80036; stroke-width: 1.5;" x1="170.5" x2="269.5" y1="46.9219" y2="46.9219"/><rect fill="#FEFECE" filter="url(#f1j1xcr4r55ehk)" height="33.9688" style="stroke: #A80036; stroke-width: 1.5;" width="84" x="178" y="169.9531"/><text fill="#000000" font-family="sans-serif" font-size="12" lengthAdjust="spacingAndGlyphs" textLength="70" x="185" y="183.0918">PDPService</text><line style="stroke: #A80036; stroke-width: 1.5;" x1="179" x2="261" y1="187.9219" y2="187.9219"/><rect fill="#FEFECE" filter="url(#f1j1xcr4r55ehk)" height="33.9688" style="stroke: #A80036; stroke-width: 1.5;" width="70" x="130" y="287.4531"/><text fill="#000000" font-family="sans-serif" font-size="12" lengthAdjust="spacingAndGlyphs" textLength="56" x="137" y="300.5918">PolicySet</text><line style="stroke: #A80036; stroke-width: 1.5;" x1="131" x2="199" y1="305.4219" y2="305.4219"/><rect fill="#FEFECE" filter="url(#f1j1xcr4r55ehk)" height="33.9688" style="stroke: #A80036; stroke-width: 1.5;" width="39" x="202.5" y="419.9531"/><text fill="#000000" font-family="sans-serif" font-size="12" lengthAdjust="spacingAndGlyphs" textLength="25" x="209.5" y="433.0918">PDP</text><line style="stroke: #A80036; stroke-width: 1.5;" x1="203.5" x2="240.5" y1="437.9219" y2="437.9219"/><rect fill="#FEFECE" filter="url(#f1j1xcr4r55ehk)" height="33.9688" style="stroke: #A80036; stroke-width: 1.5;" width="74" x="26" y="419.9531"/><text fill="#000000" font-family="sans-serif" font-size="12" lengthAdjust="spacingAndGlyphs" textLength="60" x="33" y="433.0918">PolicyImpl</text><line style="stroke: #A80036; stroke-width: 1.5;" x1="27" x2="99" y1="437.9219" y2="437.9219"/><!--link PDPSubGroup to PDPService--><path d="M220,63.1701 C220,89.9541 220,143.1231 220,169.8391 " fill="none" id="PDPSubGroup-PDPService" style="stroke: #A80036; stroke-width: 1.0;"/><text fill="#000000" font-family="sans-serif" font-size="13" lengthAdjust="spacingAndGlyphs" textLength="54" x="223.5" y="106.02">Lifecycle</text><text fill="#000000" font-family="sans-serif" font-size="13" lengthAdjust="spacingAndGlyphs" textLength="59" x="221" y="121.1528">Managed</text><text fill="#000000" font-family="sans-serif" font-size="13" lengthAdjust="spacingAndGlyphs" textLength="16" x="242.5" y="136.2856">By</text><polygon fill="#000000" points="246,145.3516,249,151.3516,252,145.3516,246,145.3516" style="stroke: #000000; stroke-width: 1.0;"/><text fill="#000000" font-family="sans-serif" font-size="13" lengthAdjust="spacingAndGlyphs" textLength="8" x="210.725" y="83.1417">1</text><text fill="#000000" font-family="sans-serif" font-size="13" lengthAdjust="spacingAndGlyphs" textLength="8" x="210.675" y="158.7798">1</text><!--link PDPService to PDP--><path d="M232.746,203.9601 C238.629,212.3681 244.971,223.1511 248,233.9531 C266.72,300.7111 265.638,322.9011 248,389.9531 C245.2,400.5991 239.312,411.3719 233.846,419.8134 " fill="none" id="PDPService-PDP" style="stroke: #A80036; stroke-width: 1.0;"/><text fill="#000000" font-family="sans-serif" font-size="13" lengthAdjust="spacingAndGlyphs" textLength="58" x="262" y="294.02">Manages</text><text fill="#000000" font-family="sans-serif" font-size="13" lengthAdjust="spacingAndGlyphs" textLength="54" x="264" y="309.1528">Lifecycle</text><text fill="#000000" font-family="sans-serif" font-size="13" lengthAdjust="spacingAndGlyphs" textLength="14" x="284" y="324.2856">Of</text><polygon fill="#000000" points="286.5,333.3516,289.5,339.3516,292.5,333.3516,286.5,333.3516" style="stroke: #000000; stroke-width: 1.0;"/><text fill="#000000" font-family="sans-serif" font-size="13" lengthAdjust="spacingAndGlyphs" textLength="8" x="227.5338" y="223.8648">1</text><text fill="#000000" font-family="sans-serif" font-size="13" lengthAdjust="spacingAndGlyphs" textLength="7" x="229.6106" y="408.7456">*</text><!--link PDPService to PolicySet--><path d="M196.343,204.0821 C186.794,211.9201 176.702,222.1941 171,233.9531 C162.809,250.8431 162.337,272.7591 163.24,287.4221 " fill="none" id="PDPService-PolicySet" style="stroke: #A80036; stroke-width: 1.0;"/><text fill="#000000" font-family="sans-serif" font-size="13" lengthAdjust="spacingAndGlyphs" textLength="58" x="172" y="247.02">Executes</text><polygon fill="#000000" points="196.5,256.0859,199.5,262.0859,202.5,256.0859,196.5,256.0859" style="stroke: #000000; stroke-width: 1.0;"/><text fill="#000000" font-family="sans-serif" font-size="13" lengthAdjust="spacingAndGlyphs" textLength="8" x="179.5273" y="224.0257">1</text><text fill="#000000" font-family="sans-serif" font-size="13" lengthAdjust="spacingAndGlyphs" textLength="8" x="153.332" y="276.3903">1</text><!--link PolicySet to PDP--><path d="M162.702,321.6261 C160.943,339.3451 160.36,368.1435 171,389.9531 C177.849,403.9916 191.043,415.7079 202.295,423.8026 " fill="none" id="PolicySet-PDP" style="stroke: #A80036; stroke-width: 1.0;"/><text fill="#000000" font-family="sans-serif" font-size="13" lengthAdjust="spacingAndGlyphs" textLength="58" x="172" y="371.02">Executes</text><text fill="#000000" font-family="sans-serif" font-size="13" lengthAdjust="spacingAndGlyphs" textLength="18" x="192" y="386.1528">On</text><polygon fill="#000000" points="196.5,395.2188,199.5,401.2188,202.5,395.2188,196.5,395.2188" style="stroke: #000000; stroke-width: 1.0;"/><text fill="#000000" font-family="sans-serif" font-size="13" lengthAdjust="spacingAndGlyphs" textLength="8" x="152.6945" y="341.5837">1</text><text fill="#000000" font-family="sans-serif" font-size="13" lengthAdjust="spacingAndGlyphs" textLength="7" x="187.6083" y="414.0562">*</text><!--link PolicySet to PolicyImpl--><path d="M129.911,320.8371 C113.7586,329.5641 95.6397,341.9671 84,357.9531 C70.5446,376.4323 65.7102,403.0015 63.9734,419.8668 " fill="none" id="PolicySet-PolicyImpl" style="stroke: #A80036; stroke-width: 1.0;"/><text fill="#000000" font-family="sans-serif" font-size="13" lengthAdjust="spacingAndGlyphs" textLength="56" x="85" y="378.52">Contains</text><polygon fill="#000000" points="108.5,387.5859,111.5,393.5859,114.5,387.5859,108.5,387.5859" style="stroke: #000000; stroke-width: 1.0;"/><text fill="#000000" font-family="sans-serif" font-size="13" lengthAdjust="spacingAndGlyphs" textLength="8" x="113.8485" y="319.7533">1</text><text fill="#000000" font-family="sans-serif" font-size="13" lengthAdjust="spacingAndGlyphs" textLength="7" x="56.1365" y="408.8167">*</text><!--
@startuml
title Runtime Relationships between Concepts

object PDPSubGroup
object PDPService
object PolicySet
object PDP
object PolicyImpl

PDPSubGroup "1" - - "1" PDPService : > Lifecycle\nManaged\nBy
PDPService "1" - - "*" PDP : > Manages\nLifecycle\nOf
PDPService "1" - - "1" PolicySet : > Executes
PolicySet "1" - - "*" PDP : > Executes\nOn
PolicySet "1" - - "*" PolicyImpl : > Contains
@enduml

PlantUML version 1.2019.07beta1(Unknown compile time)
(GPL source distribution)
Java Runtime: Java(TM) SE Runtime Environment
JVM: Java HotSpot(TM) 64-Bit Server VM
Java Version: 1.7.0_25-b15
Operating System: Linux
Default Encoding: UTF-8
Language: en
Country: US
--></g></svg>